<svg width="190" height="37" viewBox="0 0 190 37" fill="none" xmlns="http://www.w3.org/2000/svg">
<path fill-rule="evenodd" clip-rule="evenodd" d="M58.7182 10.1182C59.3543 10.8565 59.5182 10.8679 61.0307 10.2775C63.0679 9.48289 65.7055 9.87068 66.005 11.0091C66.1966 11.7367 66.3156 11.7469 67.7334 11.1587C69.6217 10.375 71.921 10.7344 72.5554 11.9122C73.0508 12.8319 72.904 13.1328 70.8667 15.3693L69.7997 16.5411L152.897 16.5229L190 16.5102V20.4925C180.319 20.4079 165.391 20.3531 148.564 20.3516L65.6142 20.347L62.634 23.0878C59.5531 25.921 57.8623 26.647 55.636 26.0922C55.0229 25.9392 54.4252 25.4472 54.307 24.9988C54.1082 24.2444 54.0015 24.23 52.8799 24.8064C50.6276 25.963 47.7852 25.3493 47.7852 23.7062C47.7852 22.8856 47.7468 22.889 46.4826 23.8172C44.872 25.0001 42.1572 25.1056 41.0714 24.0274C40.361 23.3218 40.3597 23.212 41.0462 22.024L41.7724 20.767H21.7393C2.27534 20.767 1.6823 20.7428 0.853302 19.9194C0.383987 19.4532 0 18.7857 0 18.436C0 18.0864 0.383987 17.4188 0.853302 16.9526C1.68484 16.1266 2.27536 16.105 24.225 16.105H46.7433L49.5042 13.3184C51.0227 11.7859 52.7834 10.2602 53.417 9.92789C55.095 9.04805 57.8819 9.14849 58.7182 10.1182ZM47.3884 16.845C50.305 14.0775 53.3095 11.5392 54.0647 11.2044C54.1751 11.1554 54.2771 11.1099 54.3715 11.0677C55.0761 10.7529 55.36 10.626 55.6219 10.6616C55.7988 10.6856 55.9655 10.7836 56.2449 10.9479C56.3002 10.9804 56.3599 11.0155 56.4249 11.0531C56.8358 11.2909 57.1716 11.7435 57.1716 12.0593C57.1716 12.375 54.5429 15.0353 51.3302 17.9715C46.2838 22.583 45.2948 23.3099 44.0639 23.3099C41.1597 23.3099 41.7177 22.2253 47.3884 16.845ZM50.3451 21.3862C51.1664 20.5284 53.8966 17.9401 56.4121 15.635C60.0169 12.3314 61.2487 11.443 62.2266 11.443C62.9088 11.443 63.7181 11.7439 64.0253 12.1114C64.5078 12.6891 64.1243 13.2116 61.1975 15.9656C55.5127 21.3146 52.0675 24.1575 51.2688 24.1575C50.8507 24.1575 50.1356 23.8846 49.68 23.5515C48.8787 22.9653 48.9005 22.8945 50.3451 21.3862ZM55.8963 23.8316C55.9006 23.1137 65.3833 13.8516 67.154 12.8353C68.4194 12.1093 69.7672 12.1716 70.449 12.9878C70.9653 13.6053 70.4251 14.258 65.7012 18.7255C62.7701 21.4981 59.8228 24.0609 59.1521 24.4203C57.6912 25.2035 55.8895 24.878 55.8963 23.8316Z" fill="#272727"/>
<path fill-rule="evenodd" clip-rule="evenodd" d="M45.6553 11.0252C43.4163 7.21674 40.0734 3.62575 36.9055 1.62492C35.4976 0.735751 34.1886 0.00636138 33.997 0.0042423C33.0981 -0.0063531 35.6085 5.86519 38.3732 10.2402L40.8747 14.1978L44.1164 14.3216C45.8998 14.3898 47.3585 14.3275 47.3585 14.1839C47.3585 14.0398 46.5923 12.6183 45.6553 11.0252ZM37.6884 11.0599C35.8952 7.85374 30.4925 2.24495 27.9458 0.945955C27.0072 0.467043 26.1756 0.247503 26.0984 0.457716C25.6794 1.59439 28.6152 7.81729 31.4307 11.7609L33.322 14.4097H36.2873C37.918 14.4097 39.2521 14.2852 39.2521 14.1326C39.2521 13.98 38.5486 12.5975 37.6884 11.0599ZM24.6806 4.39964C23.8952 3.6728 22.1992 2.38524 20.9115 1.53888C19.6243 0.692521 18.4033 0 18.1989 0C17.1545 0 20.243 6.94295 23.303 11.4735L25.286 14.4097H28.4377H31.5898L30.676 12.6085C29.4118 10.1178 26.3941 5.98556 24.6806 4.39964ZM20.2895 8.47632C18.2604 5.76687 14.7473 2.46237 12.5863 1.23161C11.413 0.563254 10.3895 0.201731 10.3122 0.428472C9.90691 1.61177 13.2715 8.59881 16.0699 12.386L17.5653 14.4097H20.5156C22.1382 14.4097 23.4659 14.308 23.4659 14.1839C23.4659 13.6982 21.3421 9.88212 20.2895 8.47632ZM13.9729 10.9603C11.6033 6.99169 8.673 3.82452 5.41295 1.70883C3.96489 0.768808 2.63116 0 2.44856 0C1.39046 0 4.30023 6.58271 7.36659 11.1252L9.58392 14.4097H12.6853C14.3906 14.4097 15.7862 14.3169 15.7862 14.2034C15.7862 14.0898 14.9704 12.6306 13.9729 10.9603ZM27.7598 35.9629C31.4064 33.9905 37.6564 26.9361 39.0635 23.2039C39.3144 22.539 39.0192 22.4635 36.2045 22.4758L33.0656 22.489L31.2963 25.1247C28.9489 28.6207 26.5929 33.367 26.2174 35.3556L25.9141 36.9614L27.7598 35.9629ZM19.3061 36.1973C23.3106 34.1854 27.3963 29.9765 30.2732 24.8992L31.6539 22.4623H28.4403H25.2267L22.8003 26.0846C20.6252 29.3315 17.9728 34.9292 17.934 36.3533C17.9233 36.758 18.2672 36.719 19.3061 36.1973ZM21.9022 25.8121C22.7624 24.2745 23.4659 22.892 23.4659 22.7394C23.4659 22.5869 22.1237 22.4623 20.4836 22.4623H17.5009L15.9969 24.4754C14.118 26.9899 10.7513 33.637 10.3831 35.5586L10.1074 37L11.9868 35.9837C14.8091 34.4575 20.1056 29.0242 21.9022 25.8121ZM3.75113 36.0693C7.83165 34.0015 12.3239 29.2777 14.7703 24.4817L15.8007 22.4623H12.6503H9.49986L7.5168 25.3985C5.43474 28.4809 2.82657 33.7175 2.3756 35.7209L2.10977 36.9012L3.75113 36.0693ZM43.6257 25.7744C42.2835 25.863 41.3103 25.6883 40.7454 25.2582C40.2761 24.9009 39.7824 24.6021 39.648 24.5949C38.9867 24.5585 34.617 33.1276 33.9744 35.7209L33.6821 36.9012L35.3235 36.0693C38.1189 34.6529 41.1601 31.9943 43.4495 28.9666C44.6561 27.3705 45.6455 25.9693 45.6481 25.8528C45.6506 25.7362 44.7402 25.7011 43.6257 25.7744Z" fill="#272727"/>
</svg>
