<svg width="190" height="31" viewBox="0 0 190 31" fill="none" xmlns="http://www.w3.org/2000/svg">
<path fill-rule="evenodd" clip-rule="evenodd" d="M45.8971 13.5229L110.995 13.5046L113.636 10.905C116.131 8.44852 116.41 8.29426 118.675 8.10735C120.836 7.92935 121.095 7.99758 121.306 8.79944C121.526 9.63309 121.616 9.64961 122.753 9.06559C124.502 8.1671 126.819 8.26289 127.524 9.26267C127.931 9.84033 128.285 9.96748 128.721 9.69285C129.733 9.05712 132.803 9.21944 133.406 9.94078C133.847 10.468 133.843 10.7884 133.386 11.636C133.076 12.2107 132.663 12.6812 132.468 12.6812C132.273 12.6812 132.114 12.8689 132.114 13.0982C132.114 13.3631 136.949 13.5089 145.373 13.497C154.965 13.4839 158.8 13.6174 159.239 13.9797C160.001 14.6078 160.027 16.2425 159.285 16.8545C158.921 17.155 155.416 17.3317 149.278 17.3593L139.831 17.4012L136.735 20.8689C135.032 22.7756 133.588 24.4103 133.527 24.5014C133.467 24.5921 131.667 23.4923 129.529 22.0573L125.641 19.4478L123.489 21.1503C120.99 23.127 118.451 23.5037 117.527 22.0348C117.12 21.3876 116.842 21.308 116.192 21.6534C114.802 22.3925 112.382 22.1802 111.626 21.2524C111.03 20.5209 110.842 20.4887 110.141 20.9981C109.152 21.7165 106.441 21.7623 105.747 21.0727C105.045 20.376 105.104 19.2499 105.875 18.6146C106.227 18.3243 106.515 17.9225 106.515 17.7216C106.515 17.519 70.9302 17.3542 41.5645 17.3516L0 17.348V13.5386L45.8971 13.5229ZM106.515 19.5106C106.515 19.0266 115.302 10.4756 116.451 9.84119C117.806 9.09357 119.296 9.1741 119.62 10.0124C119.828 10.5515 118.716 11.8492 115.233 15.1334C110.287 19.7979 108.53 20.9278 107.267 20.2565C106.853 20.0361 106.515 19.7008 106.515 19.5106ZM112.914 20.0636C112.914 19.4131 121.333 11.1309 122.88 10.2591C124.325 9.44576 126.141 9.72293 126.141 10.757C126.141 11.3779 117.063 19.906 115.565 20.6922C114.417 21.2948 112.914 20.9384 112.914 20.0636ZM119.106 19.8678C119.573 19.3491 122.012 17.0435 124.528 14.7435C129.177 10.4934 130.533 9.81617 131.669 11.1754C132.091 11.681 131.517 12.4163 128.414 15.3521C121.479 21.9115 120.58 22.4959 119.084 21.4097C118.269 20.818 118.27 20.7985 119.106 19.8678ZM132.68 21.0999C131.5 20.6019 127.421 17.9399 127.421 17.6678C127.421 17.4894 129.437 17.3432 131.901 17.3432C134.365 17.3432 136.38 17.4953 136.38 17.6809C136.38 18.2221 133.082 21.2694 132.68 21.0999Z" fill="#272727"/>
<path fill-rule="evenodd" clip-rule="evenodd" d="M151.74 1.94041C159.334 5.14742 181.754 12.9808 189.253 15.0465C190.653 15.4326 190.488 15.5157 185.199 17.0906C177.23 19.4631 163.846 24.1365 154.6 27.7754C150.19 29.5113 146.41 30.8264 146.201 30.698C145.525 30.2831 144.435 24.3645 144.57 21.8369L144.7 19.3804L151.74 19.3974C160.171 19.4181 161.832 19.0452 163.016 16.8651C163.83 15.3652 163.83 15.3347 162.995 13.9094C161.752 11.7878 160.279 11.461 151.847 11.4335L144.487 11.4097L144.516 8.54897C144.553 4.95924 145.738 0.207845 146.62 0.115453C146.972 0.0785809 149.276 0.899513 151.74 1.94041Z" fill="#272727"/>
</svg>
