<svg width="28" height="28" viewBox="0 0 28 28" fill="none" xmlns="http://www.w3.org/2000/svg">
<path d="M27.0003 27.0001L21.019 21.0081L27.0003 27.0001ZM24.3337 13.0001C24.3337 16.0059 23.1396 18.8885 21.0142 21.014C18.8888 23.1394 16.0061 24.3334 13.0003 24.3334C9.99454 24.3334 7.11186 23.1394 4.98645 21.014C2.86104 18.8885 1.66699 16.0059 1.66699 13.0001C1.66699 9.99429 2.86104 7.11162 4.98645 4.9862C7.11186 2.86079 9.99454 1.66675 13.0003 1.66675C16.0061 1.66675 18.8888 2.86079 21.0142 4.9862C23.1396 7.11162 24.3337 9.99429 24.3337 13.0001V13.0001Z" stroke="url(#paint0_linear_755_3271)" stroke-width="2" stroke-linecap="round"/>
<defs>
<linearGradient id="paint0_linear_755_3271" x1="4.71461" y1="4.66675" x2="27.3575" y2="24.1429" gradientUnits="userSpaceOnUse">
<stop stop-color="#D24328"/>
<stop offset="1" stop-color="#EC832E"/>
</linearGradient>
</defs>
</svg>
